<svg width="24" height="24" viewBox="0 0 20 22" fill="none" xmlns="http://www.w3.org/2000/svg">
<path fill-rule="evenodd" clip-rule="evenodd" d="M10.6139 0.210648C10.2528 -0.0702159 9.74717 -0.0702159 9.38606 0.210648L0.386059 7.21065C0.142473 7.4001 0 7.69141 0 8V19C0 19.7957 0.31607 20.5587 0.87868 21.1213C1.44129 21.6839 2.20435 22 3 22H17C17.7957 22 18.5587 21.6839 19.1213 21.1213C19.6839 20.5587 20 19.7957 20 19V8C20 7.69141 19.8575 7.4001 19.6139 7.21065L10.6139 0.210648ZM2 19V8.48908L10 2.26686L18 8.48908V19C18 19.2652 17.8946 19.5196 17.7071 19.7071C17.5196 19.8946 17.2652 20 17 20H14V11C14 10.4477 13.5523 10 13 10H7C6.44772 10 6 10.4477 6 11V20H3C2.73478 20 2.48043 19.8946 2.29289 19.7071C2.10536 19.5196 2 19.2652 2 19ZM8 20H12V12H8V20Z" fill="#F2F2F2"/>
</svg>
