<svg width="24" height="24" viewBox="0 0 23 21" fill="none" xmlns="http://www.w3.org/2000/svg">
<path fill-rule="evenodd" clip-rule="evenodd" d="M13.9132 0.493252C14.6709 0.166405 15.4831 -0.00182343 16.3033 -0.00182343C17.1234 -0.00182343 17.9356 0.166405 18.6933 0.493252C19.4509 0.820038 20.1392 1.29898 20.7189 1.90273C21.2989 2.50628 21.7593 3.22318 22.0732 4.01186C22.3871 4.80067 22.5487 5.64615 22.5487 6.5C22.5487 7.35385 22.3871 8.19934 22.0732 8.98815C21.7592 9.77689 21.2991 10.4935 20.7191 11.0971C20.719 11.0972 20.7191 11.0971 20.7191 11.0971L12.2277 19.9371C11.8525 20.3276 11.2444 20.3276 10.8692 19.9371L2.3778 11.0971C1.20665 9.87788 0.548706 8.22425 0.548706 6.5C0.548706 4.77575 1.20665 3.12212 2.3778 1.9029C3.54896 0.683667 5.13738 -0.00128865 6.79364 -0.00128865C8.4499 -0.00128865 10.0383 0.683667 11.2095 1.9029L11.5484 2.25579L11.8873 1.90306C11.8872 1.90312 11.8873 1.90301 11.8873 1.90306C12.4671 1.29924 13.1556 0.820068 13.9132 0.493252ZM16.3033 1.99818C15.7354 1.99818 15.1732 2.11464 14.6486 2.34092C14.1241 2.5672 13.6474 2.89886 13.246 3.31694L12.2277 4.37711C11.8525 4.76763 11.2444 4.76763 10.8692 4.37711L9.85102 3.31711C9.04015 2.47295 7.94038 1.99871 6.79364 1.99871C5.6469 1.99871 4.54712 2.47295 3.73625 3.31711C2.92538 4.16126 2.46984 5.30619 2.46984 6.5C2.46984 7.69382 2.92538 8.83874 3.73625 9.6829L11.5484 17.8158L19.3606 9.6829C19.7622 9.26501 20.081 8.76867 20.2983 8.22256C20.5157 7.67646 20.6276 7.09113 20.6276 6.5C20.6276 5.90888 20.5157 5.32354 20.2983 4.77744C20.081 4.23133 19.7624 3.73517 19.3608 3.31728C18.9594 2.89919 18.4825 2.5672 17.9579 2.34092C17.4333 2.11464 16.8711 1.99818 16.3033 1.99818Z" fill="#F2F2F2"/>
</svg>
