<svg width="30" height="28" viewBox="0 0 30 28" fill="none" xmlns="http://www.w3.org/2000/svg">
<path d="M26.1833 17.82C25.8695 17.5062 25.4438 17.3299 25 17.3299C24.5561 17.3299 24.1305 17.5062 23.8166 17.82C23.5028 18.1339 23.3265 18.5595 23.3265 19.0033C23.3265 19.4472 23.5028 19.8728 23.8166 20.1867L24.3 20.67H21.6666C19.8985 20.67 18.2028 19.9676 16.9526 18.7174C15.7024 17.4671 15 15.7715 15 14.0033C15 12.2352 15.7024 10.5395 16.9526 9.28931C18.2028 8.03907 19.8985 7.33669 21.6666 7.33669H24.3166L23.8166 7.82002C23.6604 7.97496 23.5364 8.15929 23.4518 8.36239C23.3672 8.56549 23.3236 8.78333 23.3236 9.00335C23.3236 9.22337 23.3672 9.44122 23.4518 9.64431C23.5364 9.84741 23.6604 10.0317 23.8166 10.1867C23.9724 10.3412 24.1571 10.4634 24.3601 10.5463C24.5632 10.6292 24.7806 10.6713 25 10.67C25.2193 10.6713 25.4368 10.6292 25.6398 10.5463C25.8429 10.4634 26.0276 10.3412 26.1833 10.1867L29.5166 6.85335C29.6711 6.69762 29.7933 6.51293 29.8763 6.30987C29.9592 6.1068 30.0012 5.88937 30 5.67002C30.0012 5.45068 29.9592 5.23324 29.8763 5.03018C29.7933 4.82712 29.6711 4.64242 29.5166 4.48669L26.1833 1.15336C26.0279 0.997963 25.8434 0.874695 25.6404 0.790595C25.4374 0.706494 25.2197 0.663208 25 0.663208C24.5561 0.663208 24.1305 0.839521 23.8166 1.15336C23.5028 1.4672 23.3265 1.89286 23.3265 2.33669C23.3265 2.78053 23.5028 3.20619 23.8166 3.52003L24.3 4.00336H21.6666C20.0154 4.00457 18.3902 4.41463 16.9361 5.19695C15.482 5.97926 14.2442 7.10948 13.3333 8.48669C12.4224 7.10948 11.1846 5.97926 9.73052 5.19695C8.27641 4.41463 6.6512 4.00457 5 4.00336H1.66667C1.22464 4.00336 0.800715 4.17895 0.488155 4.49151C0.175595 4.80407 0 5.228 0 5.67002C0 6.11205 0.175595 6.53597 0.488155 6.84853C0.800715 7.16109 1.22464 7.33669 1.66667 7.33669H5C6.7681 7.33669 8.46379 8.03907 9.71404 9.28931C10.9643 10.5395 11.6667 12.2352 11.6667 14.0033C11.6667 15.7715 10.9643 17.4671 9.71404 18.7174C8.46379 19.9676 6.7681 20.67 5 20.67H1.66667C1.22464 20.67 0.800715 20.8456 0.488155 21.1582C0.175595 21.4707 0 21.8946 0 22.3367C0 22.7787 0.175595 23.2026 0.488155 23.5152C0.800715 23.8277 1.22464 24.0033 1.66667 24.0033H5C6.6512 24.0021 8.27641 23.5921 9.73052 22.8097C11.1846 22.0274 12.4224 20.8972 13.3333 19.52C14.2442 20.8972 15.482 22.0274 16.9361 22.8097C18.3902 23.5921 20.0154 24.0021 21.6666 24.0033H24.3166L23.8166 24.4867C23.6604 24.6416 23.5364 24.8259 23.4518 25.029C23.3672 25.2321 23.3236 25.45 23.3236 25.67C23.3236 25.89 23.3672 26.1079 23.4518 26.311C23.5364 26.5141 23.6604 26.6984 23.8166 26.8533C23.9724 27.0078 24.1571 27.13 24.3601 27.213C24.5632 27.2959 24.7806 27.3379 25 27.3367C25.2193 27.3379 25.4368 27.2959 25.6398 27.213C25.8429 27.13 26.0276 27.0078 26.1833 26.8533L29.5166 23.52C29.6711 23.3643 29.7933 23.1796 29.8763 22.9765C29.9592 22.7735 30.0012 22.556 30 22.3367C30.0012 22.1173 29.9592 21.8999 29.8763 21.6968C29.7933 21.4938 29.6711 21.3091 29.5166 21.1533L26.1833 17.82Z" fill="url(#paint0_linear_90_221)" fill-opacity="0.6"/>
<defs>
<linearGradient id="paint0_linear_90_221" x1="-2.5" y1="-1.83679" x2="30" y2="57.1632" gradientUnits="userSpaceOnUse">
<stop stop-color="#F2F2F2" stop-opacity="0.9"/>
<stop offset="1" stop-opacity="0"/>
</linearGradient>
</defs>
</svg>
